<svg xmlns="http://www.w3.org/2000/svg" width="512" height="512" viewBox="0 0 108 108">
  <rect width="108" height="108" rx="24" fill="#08142F"/>
  <path fill="#123B68" d="M18,72 C23,46 37,29 54,29 C71,29 85,46 90,72 Z"/>
  <path fill="#1DBA6F" d="M14,80 C28,75 42,73 54,73 C66,73 80,75 94,80 L94,94 L14,94 Z"/>
  <path fill="#D9F99D" d="M20,88 L88,88 L88,91 L20,91 Z M30,80 L34,80 L27,94 L22,94 Z M74,80 L78,80 L86,94 L81,94 Z"/>
  <path fill="#F8C542" d="M54,13 L57,20 L64,20 L58,24 L60,31 L54,27 L48,31 L50,24 L44,20 L51,20 Z"/>
  <path fill="#FFFFFF" d="M33,20 L35,25 L40,25 L36,28 L38,33 L33,30 L28,33 L30,28 L26,25 L31,25 Z"/>
  <path fill="#FFFFFF" d="M75,20 L77,25 L82,25 L78,28 L80,33 L75,30 L70,33 L72,28 L68,25 L73,25 Z"/>
  <path fill="#FFFFFF" d="M23,37 L25,42 L30,42 L26,45 L28,50 L23,47 L18,50 L20,45 L16,42 L21,42 Z"/>
  <path fill="#FFFFFF" d="M85,37 L87,42 L92,42 L88,45 L90,50 L85,47 L80,50 L82,45 L78,42 L83,42 Z"/>
  <circle cx="58" cy="66" r="29" fill="#000000" opacity="0.26"/>
  <circle cx="54" cy="62" r="28" fill="#FFFFFF"/>
  <path fill="#E5E7EB" d="M31,48 C35,37 44,34 54,34 C64,34 73,37 77,48 C72,43 64,41 54,41 C44,41 36,43 31,48 Z"/>
  <path fill="#111827" d="M54,44 L66,53 L61,67 L47,67 L42,53 Z"/>
  <path fill="#111827" d="M33,55 L42,50 L47,55 L45,68 L34,70 L29,63 Z"/>
  <path fill="#111827" d="M75,55 L66,50 L61,55 L63,68 L74,70 L79,63 Z"/>
  <path fill="#111827" d="M42,80 L48,70 L60,70 L66,80 L54,88 Z"/>
  <path fill="#111827" d="M39,37 L49,39 L45,48 L37,51 L31,45 Z"/>
  <path fill="#111827" d="M69,37 L59,39 L63,48 L71,51 L77,45 Z"/>
  <path fill="#CBD5E1" opacity="0.9" d="M30,59 C34,76 43,86 54,89 C42,89 31,80 27,68 C25,63 26,57 28,51 Z"/>
  <path fill="#FFFFFF" opacity="0.35" d="M39,42 C43,38 49,36 55,36 C45,42 38,51 35,63 C33,55 34,48 39,42 Z"/>
</svg>
